<?xml version="1.0" encoding="UTF-8" standalone="no"?>
<svg
   xmlns:dc="http://purl.org/dc/elements/1.1/"
   xmlns:cc="http://creativecommons.org/ns#"
   xmlns:rdf="http://www.w3.org/1999/02/22-rdf-syntax-ns#"
   xmlns:svg="http://www.w3.org/2000/svg"
   xmlns="http://www.w3.org/2000/svg"
   xmlns:sodipodi="http://sodipodi.sourceforge.net/DTD/sodipodi-0.dtd"
   xmlns:inkscape="http://www.inkscape.org/namespaces/inkscape"
   version="1.1"
   width="24"
   height="24"
   viewBox="0 0 24 24"
   id="svg838"
   sodipodi:docname="title.svg"
   inkscape:version="0.92.4 (5da689c313, 2019-01-14)">
  <metadata
     id="metadata844">
    <rdf:RDF>
      <cc:Work
         rdf:about="">
        <dc:format>image/svg+xml</dc:format>
        <dc:type
           rdf:resource="http://purl.org/dc/dcmitype/StillImage" />
      </cc:Work>
    </rdf:RDF>
  </metadata>
  <defs
     id="defs842" />
  <sodipodi:namedview
     pagecolor="#ffffff"
     bordercolor="#666666"
     borderopacity="1"
     objecttolerance="10"
     gridtolerance="10"
     guidetolerance="10"
     inkscape:pageopacity="0"
     inkscape:pageshadow="2"
     inkscape:window-width="822"
     inkscape:window-height="480"
     id="namedview840"
     showgrid="false"
     inkscape:zoom="9.8333333"
     inkscape:cx="-1.6271186"
     inkscape:cy="12"
     inkscape:window-x="0"
     inkscape:window-y="0"
     inkscape:window-maximized="0"
     inkscape:current-layer="svg838" />
  <path
     d="M9,2C7.89,2 7,2.89 7,4V20C7,21.11 7.89,22 9,22H15C16.11,22 17,21.11 17,20V4C17,2.89 16.11,2 15,2H13V4H11V2H9M11,6H13V8H15V10H13V12H11V10H9V8H11V6M9,14H11V16H9V14M13,14H15V16H13V14M9,18H11V20H9V18M13,18H15V20H13V18Z"
     id="path836"
     style="fill:#0087db;fill-opacity:1" />
</svg>
